<svg width="171" height="43" viewBox="0 0 171 43" fill="none" xmlns="http://www.w3.org/2000/svg">
<path d="M90.0076 1.45053C90.0313 1.41037 90.0587 1.41037 90.0916 1.45053L90.0423 1.4907L90.0076 1.45053Z" fill="#0124DD"/>
<path d="M48.9608 15.1784C49.4771 13.6169 49.9667 12.1411 50.4455 10.6778C50.5045 10.4991 50.6242 10.458 50.7796 10.4295C53.3649 9.94706 55.9609 9.53612 58.6016 9.66655C60.4651 9.7541 62.2571 10.1347 63.8616 11.1352C66.0377 12.4895 67.0329 14.5298 67.174 17.0312C67.2562 18.4694 67.0222 19.8898 66.8167 21.2977C66.3897 24.1671 65.9502 27.0329 65.5375 29.9023C65.5262 30.0226 65.4828 30.1377 65.4117 30.2355C65.3407 30.3332 65.2446 30.4101 65.1337 30.458C63.4506 31.3817 61.6247 31.8873 59.7487 32.1946C57.427 32.5969 55.059 32.657 52.7199 32.3733C50.7707 32.1285 48.9537 31.5228 47.5386 30.0899C46.9245 29.4611 46.4478 28.7116 46.1388 27.8888C45.8297 27.066 45.695 26.188 45.7432 25.3104C45.7914 24.4328 46.0215 23.5748 46.4188 22.7909C46.8162 22.0069 47.3721 21.3141 48.0514 20.7564C49.5022 19.5629 51.2174 18.9697 53.0237 18.5856C55.7591 18.0067 58.5194 18.0853 61.2816 18.2961C61.6265 18.3211 61.7015 18.2157 61.7176 17.9084C61.8409 15.7537 60.5473 14.2065 58.2765 13.7902C56.7006 13.5007 55.1534 13.7509 53.6061 14.0046C52.0274 14.2643 50.4734 14.657 48.9608 15.1784ZM58.6231 21.6783C57.6398 21.6719 56.6576 21.7442 55.6858 21.8945C54.6352 22.0731 53.6151 22.3501 52.7682 23.0469C51.8105 23.8348 51.555 24.8925 51.7444 26.0574C51.9231 27.1205 52.6663 27.7029 53.6293 28.046C54.0708 28.2012 54.53 28.3003 54.9961 28.3408C56.7185 28.5069 58.3908 28.2068 60.0524 27.7958C60.1651 27.781 60.2685 27.7253 60.3429 27.6394C60.4173 27.5534 60.4576 27.4432 60.4562 27.3295C60.6831 25.6411 60.9082 23.9509 61.1583 22.2661C61.2012 21.9749 61.1047 21.9195 60.8618 21.873C60.1216 21.7508 59.3732 21.6857 58.6231 21.6783Z" fill="#8A8A8A"/>
<path d="M128.724 26.9455C128.439 27.8138 128.188 28.591 127.924 29.3682C127.713 30.006 127.488 30.6385 127.288 31.2817C127.269 31.3802 127.221 31.4707 127.15 31.5419C127.08 31.6132 126.99 31.6619 126.891 31.6819C124.158 32.4109 121.388 32.8057 118.565 32.4502C115.349 32.0446 112.691 30.6635 111.061 27.7138C110.059 25.8878 109.741 23.8992 109.877 21.8499C110.136 17.9514 111.76 14.7194 114.78 12.2162C116.614 10.694 118.755 9.91144 121.11 9.67918C122.734 9.52016 124.349 9.55054 125.934 9.99184C129.16 10.8852 131.312 13.3954 131.724 16.7186C131.962 18.6286 131.724 20.5046 131.415 22.3824C131.378 22.6164 131.26 22.6236 131.081 22.6236C130.214 22.6236 129.346 22.6236 128.48 22.6236C124.311 22.6236 120.142 22.6236 115.973 22.6236C115.637 22.6236 115.539 22.7057 115.533 23.0506C115.487 25.8592 117.038 27.7138 119.798 28.1872C121.839 28.5446 123.824 28.2355 125.805 27.8031C126.796 27.5815 127.771 27.295 128.724 26.9455ZM121.435 18.977H125.437C126.659 18.977 126.659 18.977 126.7 17.7549C126.784 15.2804 125.271 13.667 122.811 13.5294C119.868 13.3633 117.093 15.4948 116.379 18.6572C116.32 18.9198 116.379 18.9841 116.647 18.9823C118.238 18.9698 119.827 18.977 121.435 18.977Z" fill="#8A8A8A"/>
<path d="M138.998 32.5217C136.374 32.5043 133.77 32.0701 131.283 31.2353C131.035 31.1496 130.969 31.0781 131.058 30.8083C131.466 29.5708 131.858 28.3273 132.232 27.0778C132.325 26.7705 132.434 26.7955 132.68 26.9134C135.069 28.0819 137.767 28.4623 140.386 27.9997C141 27.9061 141.584 27.6672 142.087 27.3029C142.32 27.1414 142.514 26.9298 142.654 26.6836C142.794 26.4374 142.878 26.1629 142.898 25.8803C142.918 25.5976 142.875 25.314 142.771 25.0503C142.667 24.7867 142.505 24.5496 142.298 24.3567C141.844 23.9363 141.334 23.5804 140.783 23.299C139.416 22.5343 138.026 21.8178 136.727 20.9317C133.238 18.5429 133.663 13.5706 137.099 11.3891C138.621 10.4225 140.288 9.93831 142.058 9.75428C145.01 9.44876 147.863 9.95439 150.675 10.8013C150.933 10.8781 150.999 10.9478 150.901 11.2211C150.477 12.395 150.068 13.576 149.684 14.7641C149.582 15.0768 149.461 15.0535 149.219 14.9428C147.46 14.1128 145.534 13.6971 143.59 13.7278C142.646 13.751 141.726 13.9065 140.927 14.4639C140.588 14.6804 140.329 15.0024 140.19 15.3803C140.051 15.7583 140.04 16.1714 140.159 16.5561C140.313 16.9876 140.603 17.357 140.986 17.6085C141.814 18.2302 142.761 18.6501 143.666 19.1468C144.775 19.7254 145.833 20.396 146.829 21.1514C149.773 23.4884 149.475 27.9407 146.65 30.2027C144.828 31.6588 142.694 32.2412 140.425 32.4485C139.855 32.4985 139.289 32.5074 138.998 32.5217Z" fill="#8A8A8A"/>
<path d="M158.27 32.5219C155.682 32.4969 153.113 32.067 150.657 31.248C150.373 31.1533 150.3 31.0693 150.405 30.7692C150.809 29.5578 151.192 28.3393 151.563 27.1172C151.653 26.8206 151.742 26.7778 152.031 26.9171C154.41 28.0748 157.093 28.456 159.7 28.007C160.258 27.9193 160.794 27.72 161.274 27.4209C162.458 26.6652 162.603 25.277 161.602 24.305C161.183 23.9279 160.716 23.6066 160.214 23.3491C158.785 22.538 157.3 21.8126 155.955 20.8478C152.851 18.6056 153.237 14.548 155.135 12.5112C156.414 11.1409 158.029 10.4048 159.821 10.0099C162.199 9.47392 164.575 9.60255 166.95 10.0421C167.951 10.2207 168.93 10.4923 169.909 10.7567C170.234 10.8479 170.352 10.9443 170.214 11.316C169.801 12.4362 169.426 13.5689 169.062 14.7106C168.96 15.0233 168.858 15.068 168.551 14.934C166.815 14.119 164.919 13.7044 163.001 13.7208C162.108 13.7369 161.245 13.8691 160.466 14.3372C159.728 14.7785 159.355 15.4199 159.466 16.3025C159.535 16.8636 159.873 17.2548 160.298 17.5764C161.192 18.2536 162.219 18.7002 163.191 19.2362C164.299 19.8491 165.392 20.4869 166.359 21.3106C169.067 23.6332 168.762 27.9391 166.044 30.1545C164.584 31.3462 162.891 31.9644 161.063 32.2842C160.139 32.4343 159.206 32.5137 158.27 32.5219Z" fill="#8A8A8A"/>
<path d="M87.4881 27.2618C87.397 27.7978 87.1665 28.2785 86.9967 28.7841C86.6734 29.7471 86.3285 30.7012 86.0087 31.666C85.9852 31.7624 85.9317 31.849 85.856 31.9132C85.7802 31.9774 85.6861 32.0159 85.5871 32.0233C83.4431 32.3806 81.2759 32.6075 79.0979 32.4432C75.848 32.1984 73.0608 31.0138 71.1455 28.2445C69.7947 26.2935 69.3177 24.0762 69.4374 21.741C69.6375 17.8461 71.2884 14.6587 74.3311 12.2181C76.0749 10.821 78.126 10.1349 80.311 9.84902C83.0158 9.46565 85.7701 9.63031 88.41 10.3332C88.9138 10.4708 89.3998 10.6637 89.8947 10.8245C90.0734 10.8817 90.1198 10.9585 90.0537 11.1533C89.6321 12.3861 89.214 13.6225 88.8191 14.8642C88.7316 15.1375 88.6083 15.0822 88.4314 15.0125C87.1699 14.4952 85.834 14.1822 84.474 14.0852C81.5313 13.919 78.9728 14.7284 77.1361 17.1779C75.4156 19.4738 75.1494 23.2865 76.9914 25.5913C78.1367 27.0206 79.6482 27.7782 81.442 27.9872C83.377 28.2123 85.2476 27.8389 87.095 27.3083C87.2129 27.2743 87.3326 27.2511 87.4523 27.2225L87.4881 27.2618Z" fill="#8A8A8A"/>
<path d="M107.856 27.2365C107.445 28.4193 106.974 29.5896 106.636 30.7973C106.391 31.6782 105.978 32.0962 105.017 32.1927C102.337 32.4607 99.6572 32.7609 96.9772 32.0516C92.7624 30.9313 90.0092 27.5689 89.7805 23.1987C89.5304 18.4497 91.3492 14.6549 95.1744 11.848C96.7824 10.6706 98.6584 10.1131 100.617 9.85766C103.321 9.47556 106.074 9.63959 108.714 10.3401C109.203 10.4741 109.673 10.6742 110.161 10.8153C110.416 10.8904 110.424 11.0065 110.34 11.2298C109.93 12.4251 109.525 13.6204 109.144 14.8246C109.053 15.1122 108.944 15.1015 108.71 15.0122C106.838 14.2975 104.922 13.9098 102.902 14.1188C99.4696 14.4869 96.8575 16.756 96.1982 20.0952C95.7229 22.5054 96.1589 24.7102 98.0796 26.4165C99.6107 27.7743 101.474 28.1531 103.459 28.037C104.86 27.9447 106.243 27.6807 107.579 27.2508C107.66 27.2365 107.731 27.1704 107.856 27.2365Z" fill="#8A8A8A"/>
<path d="M39.7914 22.3199L17.535 0.0634766V3.47958L36.3753 22.3199L36.3825 22.3271L20.0631 38.6465L20.0434 38.6268L3.73478 22.3199L3.72049 22.3057L11.7265 14.2996H8.25147L0.238281 22.3128L0.245428 22.3199L20.0363 42.1108L20.0434 42.1037L39.8093 22.3378L39.7914 22.3199Z" fill="#868686"/>
<path d="M17.5279 5.83105V9.24716L30.608 22.3273L20.0703 32.8651L9.5236 22.3202L9.50931 22.3059L17.5153 14.2998H14.0403L6.0271 22.313L6.03425 22.3202L18.3247 34.6106L20.0435 36.3294L21.7908 34.5838L34.0348 22.338L17.5279 5.83105Z" fill="#868686"/>
<path d="M28.2656 22.3198L21.739 15.786L20.0023 14.0493L18.2943 15.7574L11.7336 22.3126L18.2978 28.8768L20.0166 30.5956L21.7604 28.85L28.2835 22.3376L28.2656 22.3198ZM20.047 27.1438L15.223 22.3198L15.2087 22.3055L20.0202 17.494L24.8442 22.318L20.047 27.1438Z" fill="#868686"/>
</svg>
