<svg width="92" height="54" viewBox="0 0 92 54" fill="none" xmlns="http://www.w3.org/2000/svg">
<path d="M73.5452 0L64.3542 2.02967V40.5934H73.5452V0Z" fill="#868686"/>
<path d="M46.5398 11.4653C43.6407 11.4653 40.8066 12.325 38.396 13.9357C35.9854 15.5464 34.1066 17.8358 32.9972 20.5143C31.8877 23.1927 31.5974 26.1401 32.163 28.9835C32.7286 31.827 34.1247 34.4389 36.1747 36.4889C38.2248 38.539 40.8366 39.935 43.6801 40.5007C46.5236 41.0663 49.4709 40.776 52.1494 39.6665C54.8279 38.557 57.1172 36.6782 58.7279 34.2676C60.3386 31.8571 61.1983 29.023 61.1983 26.1238C61.198 22.2363 59.6535 18.508 56.9046 15.7591C54.1556 13.0102 50.4274 11.4657 46.5398 11.4653ZM46.5398 30.8736C45.6004 30.8736 44.6821 30.5951 43.901 30.0732C43.1199 29.5512 42.5111 28.8094 42.1516 27.9415C41.7921 27.0736 41.698 26.1186 41.8813 25.1972C42.0646 24.2758 42.5169 23.4295 43.1812 22.7652C43.8455 22.1009 44.6918 21.6485 45.6132 21.4653C46.5346 21.282 47.4896 21.3761 48.3575 21.7356C49.2254 22.0951 49.9673 22.7039 50.4892 23.485C51.0111 24.2661 51.2897 25.1844 51.2897 26.1238C51.2897 27.3836 50.7892 28.5917 49.8985 29.4825C49.0077 30.3732 47.7996 30.8736 46.5398 30.8736Z" fill="#868686"/>
<path d="M46.5396 44.2002C47.479 44.2002 48.3974 44.4788 49.1785 45.0007C49.9596 45.5226 50.5684 46.2644 50.9279 47.1323C51.2874 48.0003 51.3815 48.9553 51.1982 49.8767C51.0149 50.798 50.5625 51.6444 49.8983 52.3087C49.234 52.9729 48.3876 53.4253 47.4663 53.6086C46.5449 53.7919 45.5899 53.6978 44.7219 53.3383C43.854 52.9788 43.1122 52.37 42.5903 51.5889C42.0684 50.8078 41.7898 49.8894 41.7898 48.95C41.7898 47.6903 42.2902 46.4822 43.181 45.5914C44.0718 44.7006 45.2799 44.2002 46.5396 44.2002Z" fill="#868686"/>
<path d="M25.4028 19.0257C26.5694 17.1365 27.2106 14.9702 27.2601 12.7504C27.3097 10.5306 26.7657 8.33781 25.6844 6.39852C24.6032 4.45923 23.0238 2.84375 21.1094 1.71891C19.1951 0.594079 17.0152 0.000679341 14.7948 0L0.0175781 0V40.3735H16.642C19.1151 40.3725 21.5322 39.6364 23.586 38.2586C25.6398 36.8808 27.2377 34.9236 28.1767 32.6356C29.1157 30.3476 29.3533 27.8322 28.8593 25.4088C28.3654 22.9855 27.1623 20.7637 25.4028 19.0257ZM9.53042 9.49965H14.808C15.5953 9.49965 16.3504 9.81242 16.9072 10.3691C17.4639 10.9259 17.7766 11.681 17.7766 12.4683C17.7766 13.2556 17.4639 14.0107 16.9072 14.5674C16.3504 15.1242 15.5953 15.4369 14.808 15.4369H9.53042V9.49965ZM16.6552 30.8739H9.53042V24.9366H16.6552C17.4425 24.9366 18.1976 25.2494 18.7543 25.8061C19.311 26.3628 19.6238 27.1179 19.6238 27.9052C19.6238 28.6926 19.311 29.4476 18.7543 30.0044C18.1976 30.5611 17.4425 30.8739 16.6552 30.8739Z" fill="#868686"/>
<path d="M91.531 21.5063V12.0067H86.7811V4.75L77.2815 6.76868V31.349C77.2815 37.1412 80.8834 40.4792 86.1874 40.7563C86.2402 40.7563 86.3062 40.7695 86.3589 40.7695H86.4513C86.57 40.7695 86.6756 40.7827 86.7943 40.7827H86.9131C88.5312 40.7755 90.1223 40.3676 91.5442 39.5952V32.6025C90.8519 32.7904 90.1373 32.8836 89.4199 32.8795C87.52 32.8795 86.7943 31.2171 86.7943 28.9609V21.5063H91.531Z" fill="#868686"/>
</svg>
