<svg width="54" height="53" viewBox="0 0 54 53" fill="none" xmlns="http://www.w3.org/2000/svg">
<path d="M0.930176 5.00001C0.930176 2.23858 3.16875 0 5.93018 0H48.7781C51.5395 0 53.7781 2.23858 53.7781 5V47.8479C53.7781 50.6094 51.5396 52.8479 48.7781 52.8479H5.93018C3.16876 52.8479 0.930176 50.6094 0.930176 47.8479V5.00001Z" fill="#868686"/>
<path d="M29.0579 40.0934C29.0579 40.166 29.0664 40.2341 29.0834 40.2974C29.1019 40.3593 29.1282 40.4133 29.1622 40.4597C29.1962 40.5044 29.2387 40.5401 29.2897 40.5663C29.3407 40.5925 29.3986 40.6057 29.4635 40.6057C29.519 40.6063 29.5742 40.5961 29.6258 40.5756C29.6752 40.554 29.7185 40.523 29.7556 40.4828C29.7927 40.4427 29.8212 40.394 29.8413 40.3368C29.8629 40.2781 29.8738 40.2109 29.8738 40.1352C29.8773 40.0643 29.8711 39.9934 29.8552 39.9242C29.8398 39.8578 29.8151 39.7998 29.7811 39.7504C29.7474 39.7013 29.702 39.6614 29.6489 39.6345C29.5964 39.6051 29.5346 39.5905 29.4635 39.5905C29.4037 39.5896 29.3447 39.6039 29.292 39.6322C29.2421 39.6588 29.1986 39.696 29.1645 39.7411C29.1288 39.7893 29.1021 39.8434 29.0857 39.9011C29.0671 39.9613 29.0579 40.0255 29.0579 40.0934ZM29.0579 40.6984H28.9188V39.0295H29.0579V39.6901C29.1027 39.616 29.1638 39.5603 29.241 39.5232C29.3173 39.4852 29.4014 39.4653 29.4867 39.4653C29.5778 39.4653 29.6566 39.4831 29.7231 39.5186C29.7891 39.551 29.8463 39.5986 29.89 39.6577C29.9362 39.7177 29.9701 39.7862 29.9897 39.8593C30.0113 39.9366 30.0221 40.017 30.0221 40.1004C30.0221 40.1885 30.0121 40.2712 29.992 40.3484C29.9719 40.4256 29.9394 40.4929 29.8946 40.5501C29.8502 40.6066 29.793 40.6519 29.7278 40.6822C29.6598 40.7146 29.5771 40.7309 29.4797 40.7309C29.4411 40.7309 29.4017 40.7255 29.3615 40.7146C29.3206 40.7035 29.2809 40.688 29.2433 40.6683C29.2057 40.6478 29.1707 40.6229 29.139 40.5941C29.1079 40.5629 29.0821 40.5269 29.0625 40.4875H29.0579V40.6984ZM30.3103 41.0252L30.3659 41.0345C30.386 41.0376 30.4061 41.0391 30.4262 41.0391C30.4648 41.0391 30.4965 41.0268 30.5212 41.0021C30.546 40.9773 30.566 40.9472 30.5815 40.9117C30.5988 40.8767 30.6128 40.8403 30.6232 40.8027C30.634 40.7656 30.6464 40.7339 30.6603 40.7077L30.1944 39.4977H30.3497L30.7345 40.5292L31.1192 39.4977H31.2699L30.8225 40.6822C30.7947 40.7579 30.7676 40.8259 30.7414 40.8862C30.7167 40.9464 30.6897 40.9974 30.6603 41.0391C30.6325 41.0824 30.6008 41.1149 30.5653 41.1365C30.5312 41.1597 30.4903 41.1713 30.4424 41.1713C30.4176 41.1713 30.3937 41.1697 30.3705 41.1666C30.3503 41.1638 30.3302 41.1599 30.3103 41.155V41.0252ZM33.4541 40.4759H33.4587L33.8226 39.0295H33.9849L33.5468 40.6984H33.373L32.9859 39.2242H32.9812L32.5941 40.6984H32.4203L31.9892 39.0295H32.1468L32.5061 40.4759H32.5107L32.8978 39.0295H33.0739L33.4541 40.4759ZM34.2043 40.6984V39.0295H35.3146V39.164H34.362V39.7666H35.2219V39.9011H34.362V40.564H35.3378V40.6984H34.2043ZM35.6144 40.6984V39.0295H35.8554L36.4024 40.5014H36.4071L36.9448 39.0295H37.1836V40.6984H37.026V39.2103H37.0213L36.4743 40.6984H36.326L35.7766 39.2103H35.772V40.6984H35.6144ZM37.3991 40.6984L38.0551 39.0295H38.2336L38.8733 40.6984H38.7111L38.5187 40.1746H37.7584L37.5614 40.6984H37.3991ZM37.8117 40.0401H38.4654L38.1385 39.164L37.8117 40.0401ZM18.8295 36.466H17.2522L17.0109 36.9898H15.8574V36.8397L17.7937 32.7288H18.2998L20.2154 36.8397V36.9898H19.0767L18.8295 36.466ZM18.0408 34.5238L17.6054 35.542H18.4793L18.0408 34.5238ZM24.0415 32.77V36.0011H25.5688V36.9898H22.941V32.77H24.0415ZM31.4357 36.466H29.8585L29.6171 36.9898H28.4637V36.8397L30.3999 32.7288H30.9061L32.8217 36.8397V36.9898H31.6828L31.4357 36.466ZM30.6471 34.5238L30.2115 35.542H31.0856L30.6471 34.5238ZM36.6177 33.7352H35.5819V32.77H38.7158V33.7352H37.6859V36.9898H36.6177V33.7352ZM13.8176 29.8547H27.8203C28.096 29.8547 28.2753 29.5646 28.152 29.3179L27.8641 28.7421L27.2614 27.6758L27.2304 27.6241C27.1974 27.5692 27.1508 27.5237 27.0951 27.4922C27.0393 27.4606 26.9764 27.4441 26.9123 27.4441H18.036C17.7492 27.4441 17.5709 27.1323 17.7165 26.885L23.5136 17.0424C23.6565 16.7997 24.0072 16.7986 24.1515 17.0404L31.6966 29.674C31.7295 29.729 31.7761 29.7747 31.8319 29.8063C31.8877 29.838 31.9508 29.8547 32.015 29.8547H40.6191C40.9045 29.8547 41.083 29.5455 40.9402 29.2984L30.6599 11.497C30.6274 11.4406 30.5805 11.3938 30.5242 11.3612C30.4678 11.3287 30.4038 11.3115 30.3387 11.3115H28.4954C28.2124 11.3115 28.0336 11.6157 28.1715 11.863L36.55 26.8926C36.6879 27.1399 36.5092 27.4441 36.2262 27.4441H33.4546C33.3898 27.4441 33.3261 27.4271 33.2699 27.3948C33.2137 27.3624 33.1669 27.316 33.1343 27.2599L24.2164 11.9592C24.1837 11.9032 24.137 11.8567 24.0808 11.8244C24.0246 11.7921 23.9609 11.7751 23.896 11.7751H23.8588C23.7939 11.7751 23.7301 11.7921 23.6739 11.8245C23.6176 11.8568 23.5709 11.9033 23.5382 11.9594L13.4971 29.2119C13.4641 29.2685 13.4468 29.3329 13.4468 29.3984V29.4838C13.4468 29.5822 13.4859 29.6765 13.5554 29.746C13.625 29.8156 13.7193 29.8547 13.8176 29.8547Z" fill="white"/>
</svg>
