<svg id="Layer_1" data-name="Layer 1" xmlns="http://www.w3.org/2000/svg" viewBox="0 0 862.31 311.46"><defs><style>.cls-1{fill:#f9627f;}.cls-2{fill:#5aded5;}.cls-3{fill:#fdbd2c;}.cls-4{fill:#332770;}</style></defs><title>kodobe LOGO</title><rect class="cls-1" x="37.83" y="89.25" width="40.42" height="130.95"/><circle class="cls-2" cx="113.74" cy="120" r="30.75"/><polygon class="cls-3" points="163.61 220.2 82.98 220.2 82.98 139.6 163.61 220.2"/><polygon class="cls-4" points="271.69 122.29 256.86 122.29 220.53 168.96 220.53 89.7 207.62 89.7 207.62 222.96 220.53 222.96 220.53 170.51 263.27 222.96 279.56 222.96 235.17 168.96 271.69 122.29"/><path class="cls-4" d="M327.42,119.08q-20.78,0-36,15.74a52.62,52.62,0,0,0-15.2,37.89,51.89,51.89,0,0,0,15.15,37.48,49.63,49.63,0,0,0,37,15.6q21.51,0,36.61-15.92t15.1-38.44q0-21.42-15.42-36.88A50.75,50.75,0,0,0,327.42,119.08Zm28.19,82.6a35.69,35.69,0,0,1-27.18,11.76,36.31,36.31,0,0,1-27.55-11.76q-11.07-11.76-11.07-29.15t11-29.2q11-11.81,26.4-11.8,17.11,0,28.23,11.48t11.12,29.34Q366.59,189.92,355.61,201.68Z"/><path class="cls-4" d="M559.05,119.08q-20.77,0-36,15.74a52.61,52.61,0,0,0-15.19,37.89A51.88,51.88,0,0,0,523,210.19a49.63,49.63,0,0,0,37,15.6q21.51,0,36.61-15.92t15.1-38.44q0-21.42-15.42-36.88A50.75,50.75,0,0,0,559.05,119.08Zm28.19,82.6a35.69,35.69,0,0,1-27.18,11.76,36.31,36.31,0,0,1-27.55-11.76q-11.07-11.76-11.07-29.15t11-29.2q11-11.81,26.4-11.8,17.11,0,28.23,11.48t11.12,29.34Q598.22,189.92,587.24,201.68Z"/><path class="cls-4" d="M483,137.31c-.31-.35-.56-.73-.88-1.07a12.29,12.29,0,0,0-1.52-1.71,50.87,50.87,0,0,0-37.32-15.47,47.26,47.26,0,0,0-28,8.84c-.13.06-.26.19-.38.25a57.78,57.78,0,0,0-7.58,6.63,52.38,52.38,0,0,0-11.43,17.31,46.85,46.85,0,0,0-1.58,4.73c-.06.07-.06.07-.06.13a55.11,55.11,0,0,0-2.15,15.73,51.94,51.94,0,0,0,15.16,37.51,49.74,49.74,0,0,0,37,15.6q21.5,0,36.63-15.91a14.41,14.41,0,0,0,1.2-1.39,52.75,52.75,0,0,0,13-26.72,62.63,62.63,0,0,0,.85-9.52l0,.17V89.25H483Zm-.5,35.43c0,1.33-.07,2.59-.19,3.85a31.46,31.46,0,0,1-.51,4.17c-.06.32-.12.7-.19,1a39.47,39.47,0,0,1-10.1,19.9,35.81,35.81,0,0,1-27.22,11.74,36.29,36.29,0,0,1-27.54-11.74c-7.39-7.84-11.05-17.56-11.05-29.18v-.44a45.45,45.45,0,0,1,2.71-15.54,26.56,26.56,0,0,1,1.58-3.54c.25-.5.51-1,.82-1.51a40.29,40.29,0,0,1,5.88-8.15c7.39-7.9,16.17-11.81,26.4-11.81a32.47,32.47,0,0,1,5,.31A36.43,36.43,0,0,1,471.27,143q11.18,11.47,11.18,29.31Z"/><path class="cls-4" d="M725.38,156.82a46.76,46.76,0,0,0-1.57-4.73,52.56,52.56,0,0,0-11.44-17.31,57.7,57.7,0,0,0-7.57-6.63c-.13-.06-.26-.19-.38-.25a47.28,47.28,0,0,0-28-8.84,50.91,50.91,0,0,0-37.33,15.47,11.58,11.58,0,0,0-1.51,1.71c-.33.34-.57.72-.89,1.07V89.25h-13v83.17s0-.11,0-.17a60.18,60.18,0,0,0,.85,9.52,52.59,52.59,0,0,0,13,26.72,12.07,12.07,0,0,0,1.2,1.39Q654,225.8,675.43,225.79a49.76,49.76,0,0,0,37-15.6,52,52,0,0,0,15.15-37.51A55.47,55.47,0,0,0,725.45,157C725.45,156.89,725.45,156.89,725.38,156.82ZM714,172.49q0,17.43-11.06,29.18a36.27,36.27,0,0,1-27.53,11.74,35.79,35.79,0,0,1-27.22-11.74,39.4,39.4,0,0,1-10.11-19.9l-.19-1a29.88,29.88,0,0,1-.5-4.17,37.18,37.18,0,0,1-.19-3.85v-.44q0-17.82,11.18-29.31a36.43,36.43,0,0,1,23.24-11.18,32.39,32.39,0,0,1,5-.31c10.23,0,19,3.91,26.4,11.81a40.63,40.63,0,0,1,5.87,8.15,16,16,0,0,1,.82,1.51,25.34,25.34,0,0,1,1.58,3.54A45.69,45.69,0,0,1,714,172.05Z"/><path class="cls-4" d="M843.77,175.79q0-25-14.33-40.63t-37-15.62q-23.16,0-38,15t-14.87,38a52.05,52.05,0,0,0,15.19,37.61,49.81,49.81,0,0,0,37.16,15.65A49.05,49.05,0,0,0,821,216.85q12.57-9,19.53-25.65H825.92a38.58,38.58,0,0,1-14,16.36,36.69,36.69,0,0,1-20.41,5.88q-16,0-26.72-10.14t-11.9-26.56h90.88Zm-90.52-10.31q2.29-15.53,12.45-24.64t24.8-9.13q15.75,0,25.54,8.49t13.45,25.28Z"/></svg>