<svg width="54" height="53" viewBox="0 0 54 53" fill="none" xmlns="http://www.w3.org/2000/svg">
<path d="M51.6558 0H3.02929C1.86358 0 0.918579 0.944996 0.918579 2.11071V50.7372C0.918579 51.903 1.86358 52.8479 3.02929 52.8479H51.6558C52.8215 52.8479 53.7665 51.903 53.7665 50.7372V2.11071C53.7665 0.944996 52.8215 0 51.6558 0Z" fill="#4B4B4B"/>
<path d="M11.1283 21.3056V23.2579H15.447V25.0557H11.1283V28.5598H9.13684V19.5083H16.0285V21.3056H11.1283Z" fill="white"/>
<path d="M24.8474 27.7708C24.5937 27.9713 24.3183 28.1426 24.0263 28.2816C23.7152 28.4278 23.3874 28.5356 23.0501 28.6025C22.6584 28.6795 22.2598 28.7164 21.8605 28.7127C21.226 28.7185 20.5969 28.5953 20.0114 28.3506C19.4598 28.1209 18.9589 27.7848 18.5372 27.3616C18.1192 26.937 17.7896 26.4338 17.5674 25.881C17.3327 25.3019 17.214 24.6823 17.2182 24.0575V24.0318C17.2134 23.4085 17.3321 22.7904 17.5674 22.2132C17.7925 21.6601 18.1218 21.1555 18.5372 20.7267C18.9599 20.2937 19.4657 19.9506 20.0242 19.7179C20.6315 19.4675 21.2834 19.3434 21.9402 19.3531C22.3283 19.3501 22.7158 19.3847 23.0972 19.4563C23.4229 19.5187 23.7414 19.614 24.0477 19.7409C24.3259 19.8583 24.5905 20.0057 24.8367 20.1805C25.076 20.3515 25.3009 20.5419 25.5091 20.7497L24.2403 22.2105C23.9163 21.9126 23.5529 21.6606 23.1603 21.4616C22.7752 21.2767 22.3524 21.1838 21.9253 21.1904C21.5623 21.1871 21.2029 21.2621 20.8715 21.4103C20.5542 21.5524 20.2701 21.7594 20.0376 22.0179C19.8022 22.281 19.618 22.5858 19.4947 22.9166C19.3636 23.2659 19.2978 23.6363 19.3005 24.0093V24.035C19.2982 24.4102 19.364 24.7826 19.4947 25.1342C19.6161 25.4661 19.7974 25.7729 20.0296 26.0393C20.2664 26.3072 20.5582 26.5209 20.885 26.6659C21.2119 26.8109 21.5661 26.8838 21.9237 26.8796C22.4411 26.8796 22.8786 26.7848 23.2363 26.595C23.6241 26.384 23.9826 26.1233 24.3029 25.8194L25.5701 27.0995C25.3465 27.3412 25.1049 27.5656 24.8474 27.7708Z" fill="white"/>
<path d="M34.2475 28.5598V22.6503L31.6998 26.5165H31.6463L29.1248 22.6893V28.5598H27.1617V19.5083H29.3078L31.687 23.336L34.0662 19.5083H36.2128V28.5598H34.2475Z" fill="white"/>
<path d="M45.827 27.1632C45.6669 27.4746 45.4318 27.7411 45.1429 27.9388C44.8177 28.1581 44.4552 28.316 44.0731 28.4047C43.6175 28.5125 43.1505 28.5646 42.6824 28.5598H38.385V19.5083H42.5802C43.5092 19.5083 44.2382 19.7196 44.7674 20.1422C45.2966 20.5647 45.5614 21.1337 45.5617 21.849V21.8774C45.5654 22.1094 45.5328 22.3406 45.4649 22.5626C45.4046 22.7519 45.3182 22.932 45.2082 23.0975C45.1034 23.2543 44.9774 23.3958 44.8337 23.5179C44.6938 23.6378 44.5409 23.7419 44.378 23.8281C44.9011 24.0268 45.313 24.2962 45.6136 24.6364C45.9142 24.9766 46.0644 25.4476 46.064 26.0496V26.0752C46.0732 26.4516 45.9919 26.8247 45.827 27.1632ZM43.596 22.1849C43.596 21.8832 43.484 21.6527 43.2601 21.4933C43.0361 21.3339 42.7129 21.2542 42.2903 21.2542H40.3246V23.1675H42.1593C42.5989 23.1675 42.948 23.0921 43.2066 22.9413C43.4651 22.7904 43.5944 22.5469 43.5944 22.2106L43.596 22.1849ZM44.1004 25.8057C44.1051 25.6665 44.0757 25.5282 44.0148 25.4029C43.954 25.2776 43.8634 25.1691 43.7511 25.0868C43.5183 24.9102 43.1438 24.8211 42.6278 24.8193H40.3278V26.8107H42.6941C43.1338 26.8107 43.4787 26.731 43.7286 26.5716C43.9786 26.4122 44.1034 26.1644 44.1031 25.8281L44.1004 25.8057Z" fill="white"/>
<path d="M45.9154 34.3599V38.792H8.93896V36.4609C8.93889 36.185 8.99319 35.9118 9.09876 35.6568C9.20432 35.4019 9.35908 35.1702 9.5542 34.9751C9.74932 34.78 9.98097 34.6252 10.2359 34.5197C10.4909 34.4141 10.7641 34.3598 11.04 34.3599H45.9154Z" fill="#565656"/>
<path d="M8.93897 40.2271H45.9154V44.6592H11.04C10.7641 44.6593 10.4908 44.605 10.2358 44.4994C9.98081 44.3938 9.74914 44.239 9.55401 44.0438C9.35889 43.8486 9.20414 43.6169 9.0986 43.3619C8.99307 43.1069 8.93882 42.8336 8.93897 42.5576V40.2271Z" fill="#565656"/>
</svg>
