<svg width="1440" height="1360" viewBox="0 0 1440 1360" fill="none" xmlns="http://www.w3.org/2000/svg">
<path d="M-21.7355 566.28C59.8862 670.358 59.985 739.531 -16.1299 814.624C-128.227 925.241 -128.047 1089.74 33.9935 1200.07C148.737 1278.22 266.298 1277 456.386 1226.1C646.475 1175.21 823.26 1241.55 1034.65 1315.73C1246.03 1389.92 1394.51 1366.5 1493.93 1274.42C1578.02 1196.61 1578.35 1071.77 1438.06 898.083C1297.77 724.394 1460.6 651.494 1526.16 583.468C1601.27 505.535 1703.25 410.48 1638.18 244.356C1574.59 82.3549 1421.08 0.889614 1239.72 0.863211C1053.46 0.883723 908.131 92.1664 775.584 191.604C645.698 289.095 496.414 401.558 228.614 351.222C-39.0499 300.932 -111.96 451.255 -21.7355 566.28Z" fill="#FFF9F0"/>
</svg>
