<svg width="1257" height="817" viewBox="0 0 1257 817" fill="none" xmlns="http://www.w3.org/2000/svg">
<path d="M369.845 100.185C610.609 48.7424 752.399 75.2776 950.345 181.56C1123.51 274.539 1193.68 442.312 1183.76 552.628C1174.06 660.113 1112.29 759.39 1010.37 797.883C909.877 835.882 805.144 818.758 631.449 713.82C457.906 608.882 330.211 614.118 234.648 606.406C139.161 598.693 2.67584 551.495 0.0234254 418.82C-2.62899 286.215 220.553 132.098 369.845 100.185Z" fill="url(#paint0_linear)"/>
<path d="M263.723 249.683C434.874 86.125 569.241 36.3706 797.772 23.4636C997.727 12.222 1155.73 114.16 1212.73 209.435C1268.21 302.283 1275.2 414.698 1212.73 497.622C1151.09 579.367 1053.28 618.227 845.804 619.961C638.325 621.627 534.586 690.325 450.074 732.238C365.563 774.151 223.368 804.268 142.732 697.056C62.0206 589.776 157.552 351.135 263.723 249.683Z" fill="url(#paint1_linear)"/>
<path d="M1075.73 694.843C1050.24 694.843 1029.71 674.142 1029.71 648.822C1029.71 623.502 1050.41 602.801 1075.73 602.801C1101.22 602.801 1121.75 623.502 1121.75 648.822C1121.75 674.142 1101.05 694.843 1075.73 694.843ZM1075.73 716.57C1113.2 716.57 1143.48 686.289 1143.48 648.822C1143.48 611.355 1113.2 581.074 1075.73 581.074C1038.26 581.074 1007.98 611.355 1007.98 648.822C1007.98 686.289 1038.26 716.57 1075.73 716.57Z" fill="white"/>
<path d="M1184.53 112.912C1156.25 112.912 1133.21 89.8716 1133.21 61.5914C1133.21 33.3112 1156.25 10.2709 1184.53 10.2709C1212.81 10.2709 1235.85 33.3112 1235.85 61.5914C1235.85 89.9486 1212.81 112.912 1184.53 112.912ZM1184.53 122.698C1218.28 122.698 1245.56 95.3427 1245.56 61.6684C1245.56 27.9171 1218.2 0.638672 1184.53 0.638672C1150.77 0.638672 1123.5 27.9942 1123.5 61.6684C1123.42 95.3427 1150.77 122.698 1184.53 122.698Z" fill="#FF9900"/>
<path d="M96.625 328.134C51.4691 328.134 14.7896 291.454 14.7896 246.298C14.7896 201.143 51.4691 164.463 96.625 164.463C141.781 164.463 178.46 201.143 178.46 246.298C178.46 291.454 141.781 328.134 96.625 328.134ZM96.625 337.92C147.252 337.92 188.247 296.925 188.247 246.298C188.247 195.671 147.252 154.677 96.625 154.677C45.998 154.677 5.0033 195.671 5.0033 246.298C5.0033 296.925 46.0751 337.92 96.625 337.92Z" fill="#0030DF"/>
<defs>
<linearGradient id="paint0_linear" x1="28.6539" y1="163.986" x2="1251.21" y2="787.837" gradientUnits="userSpaceOnUse">
<stop stop-color="#FF9900"/>
<stop offset="1" stop-color="#FFD092"/>
</linearGradient>
<linearGradient id="paint1_linear" x1="1183.18" y1="77.0082" x2="162.441" y2="806.494" gradientUnits="userSpaceOnUse">
<stop stop-color="#0030DF"/>
<stop offset="1" stop-color="#456DFF"/>
</linearGradient>
</defs>
</svg>
