<svg width="1440" height="1176" viewBox="0 0 1440 1176" fill="none" xmlns="http://www.w3.org/2000/svg">
<path d="M625 1168.84C591.979 1168.84 565.156 1142.02 565.156 1109C565.156 1075.98 591.979 1049.16 625 1049.16C658.021 1049.16 684.844 1075.98 684.844 1109C684.844 1142.02 658.021 1168.84 625 1168.84ZM625 1176C662.022 1176 692 1146.02 692 1109C692 1071.98 662.022 1042 625 1042C587.978 1042 558 1071.98 558 1109C558 1146.02 588.034 1176 625 1176Z" fill="#FF9900"/>
<path d="M784.214 2.60024C1056.55 12.6401 1199.56 83.4198 1378.02 261.26C1534.14 416.839 1557.62 628.377 1513.3 751.456C1470.09 871.37 1373.9 967.047 1253.49 981.875C1134.77 996.549 1028.39 947.095 875.357 777.714C722.489 608.378 584.791 577.887 485.299 541.793C385.889 505.721 254.858 412.872 292.608 260.678C330.337 108.564 615.338 -3.60907 784.214 2.60024Z" fill="url(#paint0_linear)"/>
<path d="M-42.7086 48.8985C138.977 -282.966 315.659 -416.451 647.2 -527.634C937.307 -624.832 1214.52 -522.617 1339.84 -391.239C1461.87 -263.183 1520.85 -84.3502 1464.58 74.299C1409.04 230.712 1281.57 332.149 976.248 416.963C670.897 501.665 547.597 653.647 441.067 754.759C334.538 855.871 137.808 960.727 -27.551 819.411C-193.052 678.013 -155.419 254.751 -42.7086 48.8985Z" fill="url(#paint1_linear)"/>
<path d="M177.5 510.538C147.683 510.538 123.462 486.318 123.462 456.5C123.462 426.683 147.683 402.462 177.5 402.462C207.317 402.462 231.538 426.683 231.538 456.5C231.538 486.318 207.317 510.538 177.5 510.538ZM177.5 517C210.93 517 238 489.93 238 456.5C238 423.07 210.93 396 177.5 396C144.07 396 117 423.07 117 456.5C117 489.93 144.121 517 177.5 517Z" fill="#FF9900"/>
<path d="M80.9407 874.437L150.563 944.06C151.896 945.392 151.896 947.613 150.563 949.001C149.231 950.333 147.01 950.333 145.622 949.001L75.9994 879.323C74.6669 877.99 74.6669 875.769 75.9994 874.381C77.3874 873.049 79.6082 873.049 80.9407 874.437Z" fill="#FF9900"/>
<path d="M90.2681 908.582L116.418 934.732C117.751 936.065 117.751 938.285 116.418 939.673C115.086 941.006 112.865 941.006 111.477 939.673L85.3268 913.523C83.9943 912.191 83.9943 909.97 85.3268 908.582C86.7148 907.249 88.8801 907.249 90.2681 908.582Z" fill="#FF9900"/>
<path d="M80.9407 849.564L175.437 944.06C176.769 945.392 176.769 947.613 175.437 949.001C174.104 950.333 171.883 950.333 170.495 949.001L75.9994 854.505C74.6669 853.172 74.6669 850.952 75.9994 849.564C77.3874 848.231 79.6082 848.231 80.9407 849.564Z" fill="#FF9900"/>
<path d="M86.1042 829.909L195.091 938.896C196.423 940.229 196.423 942.449 195.091 943.837C193.758 945.17 191.538 945.17 190.15 943.837L81.2184 834.851C79.8859 833.518 79.8859 831.297 81.2184 829.909C82.5509 828.577 84.7717 828.577 86.1042 829.909Z" fill="#FF9900"/>
<path d="M95.2095 813.586L212.025 930.401C213.357 931.734 213.357 933.955 212.025 935.343C210.692 936.675 208.471 936.675 207.083 935.343L90.3237 818.472C88.9912 817.14 88.9912 814.919 90.3237 813.531C91.6562 812.198 93.877 812.198 95.2095 813.586Z" fill="#FF9900"/>
<path d="M106.369 799.873L225.683 919.186C227.015 920.519 227.015 922.74 225.683 924.128C224.35 925.46 222.129 925.46 220.741 924.128L101.483 804.814C100.151 803.482 100.151 801.261 101.483 799.873C102.816 798.54 105.037 798.54 106.369 799.873Z" fill="#FF9900"/>
<path d="M120.083 788.713L236.898 905.528C238.23 906.861 238.23 909.082 236.898 910.47C235.565 911.802 233.344 911.802 231.956 910.47L115.141 793.654C113.809 792.322 113.809 790.101 115.141 788.713C116.529 787.325 118.75 787.325 120.083 788.713Z" fill="#FF9900"/>
<path d="M136.406 780.219L245.392 889.205C246.725 890.538 246.725 892.759 245.392 894.147C244.06 895.479 241.839 895.479 240.451 894.147L131.52 785.104C130.187 783.772 130.187 781.551 131.52 780.163C132.852 778.831 135.073 778.831 136.406 780.219Z" fill="#FF9900"/>
<path d="M156.116 775L250.556 869.495C251.888 870.828 251.888 873.049 250.556 874.437C249.223 875.769 247.003 875.769 245.615 874.437L151.174 779.941C149.842 778.608 149.842 776.388 151.174 775C152.507 773.667 154.727 773.667 156.116 775Z" fill="#FF9900"/>
<path d="M180.933 775L250.556 844.622C251.888 845.955 251.888 848.176 250.556 849.564C249.223 850.896 247.003 850.896 245.615 849.564L175.992 779.941C174.659 778.608 174.659 776.388 175.992 775C177.38 773.667 179.601 773.667 180.933 775Z" fill="#FF9900"/>
<path d="M214.523 784.327L240.673 810.477C242.006 811.81 242.006 814.031 240.673 815.419C239.341 816.751 237.12 816.751 235.732 815.419L209.582 789.268C208.249 787.936 208.249 785.715 209.582 784.327C210.97 782.995 213.135 782.995 214.523 784.327Z" fill="#FF9900"/>
<path d="M1287 1009.84C1253.98 1009.84 1227.16 983.021 1227.16 950C1227.16 916.979 1253.98 890.157 1287 890.157C1320.02 890.157 1346.84 916.979 1346.84 950C1346.84 983.021 1320.02 1009.84 1287 1009.84ZM1287 1017C1324.02 1017 1354 987.022 1354 950C1354 912.978 1324.02 883 1287 883C1249.98 883 1220 912.978 1220 950C1220 987.022 1250.03 1017 1287 1017Z" fill="#0030DF"/>
<path d="M1329.47 192.78L1358.43 221.743C1358.99 222.297 1358.99 223.221 1358.43 223.798C1357.88 224.352 1356.96 224.352 1356.38 223.798L1327.42 194.813C1326.86 194.259 1326.86 193.335 1327.42 192.757C1327.99 192.203 1328.92 192.203 1329.47 192.78Z" fill="#FF9900"/>
<path d="M1333.35 206.984L1344.23 217.862C1344.78 218.417 1344.78 219.341 1344.23 219.918C1343.68 220.472 1342.75 220.472 1342.17 219.918L1331.3 209.04C1330.74 208.486 1330.74 207.562 1331.3 206.984C1331.87 206.43 1332.77 206.43 1333.35 206.984Z" fill="#FF9900"/>
<path d="M1329.47 182.433L1368.78 221.743C1369.33 222.297 1369.33 223.221 1368.78 223.798C1368.23 224.352 1367.3 224.352 1366.72 223.798L1327.42 184.489C1326.86 183.935 1326.86 183.011 1327.42 182.433C1327.99 181.879 1328.92 181.879 1329.47 182.433Z" fill="#FF9900"/>
<path d="M1331.62 174.258L1376.96 219.595C1377.51 220.149 1377.51 221.073 1376.96 221.65C1376.4 222.205 1375.48 222.205 1374.9 221.65L1329.59 176.313C1329.03 175.759 1329.03 174.835 1329.59 174.258C1330.14 173.703 1331.07 173.703 1331.62 174.258Z" fill="#FF9900"/>
<path d="M1335.41 167.467L1384 216.061C1384.55 216.615 1384.55 217.539 1384 218.117C1383.45 218.671 1382.52 218.671 1381.95 218.117L1333.37 169.5C1332.82 168.945 1332.82 168.022 1333.37 167.444C1333.93 166.89 1334.85 166.89 1335.41 167.467Z" fill="#FF9900"/>
<path d="M1340.05 161.763L1389.68 211.396C1390.24 211.95 1390.24 212.874 1389.68 213.451C1389.13 214.005 1388.2 214.005 1387.63 213.451L1338.02 163.818C1337.46 163.264 1337.46 162.34 1338.02 161.763C1338.57 161.208 1339.49 161.208 1340.05 161.763Z" fill="#FF9900"/>
<path d="M1345.75 157.12L1394.35 205.714C1394.9 206.268 1394.9 207.192 1394.35 207.77C1393.79 208.324 1392.87 208.324 1392.29 207.77L1343.7 159.176C1343.14 158.622 1343.14 157.698 1343.7 157.12C1344.28 156.543 1345.2 156.543 1345.75 157.12Z" fill="#FF9900"/>
<path d="M1352.54 153.587L1397.88 198.924C1398.44 199.478 1398.44 200.402 1397.88 200.979C1397.33 201.534 1396.4 201.534 1395.83 200.979L1350.51 155.619C1349.96 155.065 1349.96 154.141 1350.51 153.564C1351.07 153.009 1351.99 153.009 1352.54 153.587Z" fill="#FF9900"/>
<path d="M1360.74 151.416L1400.03 190.725C1400.58 191.279 1400.58 192.203 1400.03 192.78C1399.47 193.335 1398.55 193.335 1397.97 192.78L1358.69 153.471C1358.13 152.917 1358.13 151.993 1358.69 151.416C1359.24 150.861 1360.17 150.861 1360.74 151.416Z" fill="#FF9900"/>
<path d="M1371.07 151.416L1400.03 180.378C1400.58 180.932 1400.58 181.856 1400.03 182.433C1399.47 182.988 1398.55 182.988 1397.97 182.433L1369.01 153.471C1368.46 152.917 1368.46 151.993 1369.01 151.416C1369.59 150.861 1370.51 150.861 1371.07 151.416Z" fill="#FF9900"/>
<path d="M1385.04 155.296L1395.92 166.174C1396.47 166.728 1396.47 167.652 1395.92 168.23C1395.36 168.784 1394.44 168.784 1393.86 168.23L1382.98 157.351C1382.43 156.797 1382.43 155.873 1382.98 155.296C1383.56 154.742 1384.46 154.742 1385.04 155.296Z" fill="#FF9900"/>
<defs>
<linearGradient id="paint0_linear" x1="401.061" y1="-22.0147" x2="1568.59" y2="974.341" gradientUnits="userSpaceOnUse">
<stop stop-color="#FF9900"/>
<stop offset="1" stop-color="#FFD092"/>
</linearGradient>
<linearGradient id="paint1_linear" x1="1238.93" y1="-593.482" x2="-77.4371" y2="875.176" gradientUnits="userSpaceOnUse">
<stop stop-color="#0030DF"/>
<stop offset="1" stop-color="#456DFF"/>
</linearGradient>
</defs>
</svg>
